<svg width="32" height="32" viewBox="0 0 32 32" fill="none" xmlns="http://www.w3.org/2000/svg">
<path d="M20 22.6667H26.6667L24.7935 20.7934C24.2854 20.2854 24 19.5964 24 18.8779V14.6667C24 11.1834 21.7739 8.22012 18.6667 7.12189V6.66667C18.6667 5.19391 17.4728 4 16 4C14.5273 4 13.3334 5.19391 13.3334 6.66667V7.12189C10.2262 8.22012 8.00004 11.1834 8.00004 14.6667V18.8779C8.00004 19.5964 7.71464 20.2854 7.20662 20.7934L5.33337 22.6667H12M20 22.6667V24C20 26.2091 18.2092 28 16 28C13.7909 28 12 26.2091 12 24V22.6667M20 22.6667H12" stroke="#101010" stroke-width="2" stroke-linecap="round" stroke-linejoin="round"/>
</svg>
