<svg width="23" height="23" viewBox="0 0 23 23" fill="none" xmlns="http://www.w3.org/2000/svg">
<path d="M3.28271 11.6904L5.104 9.86914M5.104 9.86914L11.4785 3.49463L17.853 9.86914M5.104 9.86914V18.9756C5.104 19.4785 5.51171 19.8862 6.01465 19.8862H8.74658M17.853 9.86914L19.6743 11.6904M17.853 9.86914V18.9756C17.853 19.4785 17.4453 19.8862 16.9424 19.8862H14.2104M8.74658 19.8862C9.24952 19.8862 9.65723 19.4785 9.65723 18.9756V15.333C9.65723 14.8301 10.0649 14.4224 10.5679 14.4224H12.3892C12.8921 14.4224 13.2998 14.8301 13.2998 15.333V18.9756C13.2998 19.4785 13.7075 19.8862 14.2104 19.8862M8.74658 19.8862H14.2104" stroke="white" stroke-width="2.18555" stroke-linecap="round" stroke-linejoin="round"/>
</svg>
